<svg width="100" height="100" viewBox="0 0 100 100" fill="none" xmlns="http://www.w3.org/2000/svg">
<path d="M47.9681 7.82843C22.8343 7.82843 3.125 27.6312 3.125 52.9823C3.125 78.3334 22.706 98.1295 47.9681 98.1295C73.2303 98.1295 93.0679 78.33 93.0679 52.9823C93.0679 27.6346 73.2367 7.82843 47.9681 7.82843ZM67.5684 70.8742L72.1332 78.0987L65.2138 73.3282C54.8298 66.1641 41.3535 66.1641 30.9695 73.3282L24.0565 78.0987L28.6213 70.8742C35.4766 60.0224 35.4766 45.9389 28.6213 35.087L24.0565 27.8559L30.9695 32.6264C41.3535 39.7972 54.8298 39.7972 65.2138 32.6264L72.1332 27.8559L67.5684 35.087C60.7067 45.9389 60.7067 60.0224 67.5684 70.8742Z" fill="#009BFF"/>
<path d="M86.96 3.125L87.3963 5.35772C88.0411 8.65651 90.5079 11.2345 93.6677 11.9117L95.8042 12.3676L93.6677 12.8236C90.5111 13.4974 88.0443 16.0754 87.3963 19.3776L86.96 21.6103L86.5237 19.3776C85.8789 16.0788 83.4121 13.5008 80.2523 12.8236L78.1158 12.3676L80.2523 11.9117C83.4089 11.2379 85.8757 8.65986 86.5237 5.35772L86.96 3.125Z" fill="#009BFF"/>
</svg>
