<?xml version="1.0" encoding="UTF-8"?>
<svg id="Layer_2" data-name="Layer 2" xmlns="http://www.w3.org/2000/svg" viewBox="0 0 135 40">
  <defs>
    <style>
      .cls-1 {
        fill: #a6a6a6;
      }

      .cls-2 {
        fill: #fff;
      }
    </style>
  </defs>
  <g id="US_UK_Download_on_the" data-name="US UK Download on the">
    <g>
      <path class="cls-1" d="M130.2,40H4.73c-2.61,0-4.73-2.13-4.73-4.73V4.73C0,2.12,2.12,0,4.73,0h125.47c2.61,0,4.8,2.12,4.8,4.73v30.54c0,2.61-2.2,4.73-4.8,4.73h0Z"/>
      <path d="M134.03,35.27c0,2.12-1.71,3.83-3.83,3.83H4.73c-2.12,0-3.84-1.71-3.84-3.83V4.72C.89,2.61,2.61.89,4.73.89h125.47c2.12,0,3.83,1.72,3.83,3.84v30.54h0Z"/>
      <g>
        <path class="cls-2" d="M27.91,19.78c-.03-3.22,2.64-4.79,2.76-4.86-1.51-2.2-3.85-2.5-4.68-2.53-1.97-.21-3.88,1.18-4.88,1.18s-2.57-1.16-4.23-1.12c-2.14.03-4.14,1.27-5.24,3.2-2.27,3.92-.58,9.69,1.6,12.86,1.09,1.55,2.36,3.29,4.02,3.23,1.62-.07,2.23-1.04,4.19-1.04s2.51,1.04,4.21,1c1.74-.03,2.84-1.56,3.89-3.13,1.26-1.78,1.76-3.53,1.78-3.62-.04-.01-3.39-1.29-3.42-5.15Z"/>
        <path class="cls-2" d="M24.71,10.31c.87-1.09,1.47-2.58,1.31-4.09-1.26.06-2.85.88-3.76,1.94-.81.94-1.53,2.49-1.34,3.94,1.42.11,2.88-.72,3.79-1.79Z"/>
      </g>
      <g>
        <path class="cls-2" d="M47.93,18.93h-1.81l-.99-3.11h-3.45l-.94,3.11h-1.76l3.41-10.6h2.11l3.43,10.6ZM44.83,14.51l-.9-2.77c-.09-.28-.27-.95-.53-2h-.03c-.1.45-.27,1.12-.5,2l-.88,2.77h2.85Z"/>
        <path class="cls-2" d="M56.71,15.02c0,1.3-.35,2.33-1.05,3.08-.63.67-1.41,1.01-2.34,1.01-1.01,0-1.73-.36-2.17-1.09h-.03v4.03h-1.7v-8.24c0-.82-.02-1.66-.06-2.52h1.49l.09,1.21h.03c.57-.91,1.43-1.37,2.58-1.37.9,0,1.65.36,2.26,1.07.6.71.91,1.65.91,2.82ZM54.98,15.08c0-.74-.17-1.36-.5-1.84-.37-.5-.86-.76-1.48-.76-.42,0-.8.14-1.14.42-.34.28-.56.64-.67,1.09-.05.21-.08.38-.08.52v1.27c0,.56.17,1.03.51,1.41s.78.57,1.33.57c.64,0,1.14-.25,1.49-.74.36-.49.54-1.14.54-1.95Z"/>
        <path class="cls-2" d="M65.5,15.02c0,1.3-.35,2.33-1.05,3.08-.63.67-1.41,1.01-2.34,1.01-1.01,0-1.73-.36-2.17-1.09h-.03v4.03h-1.7v-8.24c0-.82-.02-1.66-.06-2.52h1.49l.09,1.21h.03c.57-.91,1.43-1.37,2.58-1.37.9,0,1.65.36,2.26,1.07.6.71.9,1.65.9,2.82ZM63.77,15.08c0-.74-.17-1.36-.5-1.84-.37-.5-.86-.76-1.48-.76-.42,0-.8.14-1.14.42-.34.28-.56.64-.67,1.09-.05.21-.08.38-.08.52v1.27c0,.56.17,1.03.51,1.41.34.38.78.57,1.33.57.64,0,1.14-.25,1.49-.74.36-.49.54-1.14.54-1.95Z"/>
        <path class="cls-2" d="M75.33,15.96c0,.9-.31,1.64-.94,2.2-.69.62-1.65.93-2.89.93-1.14,0-2.06-.22-2.75-.66l.39-1.42c.75.45,1.56.68,2.46.68.64,0,1.14-.15,1.5-.43.36-.29.53-.68.53-1.16,0-.43-.15-.79-.44-1.09-.29-.29-.78-.57-1.46-.82-1.86-.69-2.78-1.71-2.78-3.04,0-.87.33-1.59.98-2.14.65-.56,1.51-.83,2.6-.83.96,0,1.77.17,2.41.5l-.42,1.38c-.6-.33-1.27-.49-2.03-.49-.6,0-1.06.15-1.4.44-.28.26-.42.58-.42.96,0,.42.16.77.49,1.04.28.25.8.52,1.54.82.91.37,1.58.8,2.01,1.29.43.49.64,1.11.64,1.84Z"/>
        <path class="cls-2" d="M80.95,12.56h-1.87v3.71c0,.94.33,1.42.99,1.42.3,0,.56-.03.75-.08l.05,1.29c-.33.13-.78.19-1.32.19-.67,0-1.2-.2-1.57-.61-.38-.41-.57-1.1-.57-2.06v-3.85h-1.12v-1.27h1.12v-1.4l1.67-.5v1.9h1.87s0,1.28,0,1.28Z"/>
        <path class="cls-2" d="M89.4,15.05c0,1.18-.34,2.14-1.01,2.89-.7.78-1.64,1.16-2.8,1.16s-2.01-.37-2.68-1.12-1-1.68-1-2.82.34-2.16,1.03-2.91c.69-.76,1.61-1.13,2.78-1.13s2.02.37,2.71,1.12c.65.72.98,1.66.98,2.8ZM87.63,15.1c0-.71-.15-1.31-.46-1.81-.36-.61-.87-.91-1.52-.91s-1.2.31-1.56.91c-.31.51-.46,1.12-.46,1.85s.15,1.31.46,1.81c.37.61.88.91,1.54.91s1.16-.31,1.52-.93c.31-.51.47-1.12.47-1.83Z"/>
        <path class="cls-2" d="M94.92,12.78c-.17-.03-.35-.05-.54-.05-.6,0-1.06.23-1.38.68-.28.4-.42.9-.42,1.51v4.01h-1.7l.02-5.24c0-.88-.02-1.68-.06-2.41h1.48l.06,1.46h.05c.18-.5.46-.91.85-1.21.38-.27.79-.41,1.23-.41.16,0,.3.01.42.03,0,0,0,1.62,0,1.62Z"/>
        <path class="cls-2" d="M102.51,14.75c0,.3-.02.56-.06.77h-5.1c.02.76.27,1.33.74,1.73.43.36.98.53,1.67.53.75,0,1.44-.12,2.06-.36l.27,1.18c-.72.32-1.58.47-2.56.47-1.19,0-2.12-.35-2.79-1.05-.68-.7-1.01-1.63-1.01-2.81s.31-2.11.94-2.88c.66-.82,1.55-1.23,2.67-1.23s1.94.41,2.5,1.23c.45.65.67,1.45.67,2.41ZM100.89,14.31c.01-.5-.1-.94-.33-1.31-.29-.47-.75-.71-1.35-.71-.56,0-1.01.23-1.35.69-.28.37-.45.81-.5,1.32h3.54Z"/>
      </g>
      <g>
        <path class="cls-2" d="M41.2,28.37l-2.22-3.72h1.09l1.61,2.78h.03l1.61-2.78h1.09l-2.22,3.72v2.58h-.98v-2.58Z"/>
        <path class="cls-2" d="M44.9,29.34v-2.98h.94v2.8c0,.69.32,1.08.98,1.08s1.09-.48,1.09-1.19v-2.68h.95v4.6h-.95v-.69h-.02c-.24.46-.71.78-1.41.78-1.01,0-1.59-.65-1.59-1.71ZM45.51,25.15c0-.28.22-.5.51-.5s.51.22.51.5-.22.5-.51.5-.51-.22-.51-.5ZM47.23,25.15c0-.28.23-.5.51-.5s.51.22.51.5-.22.5-.51.5-.51-.22-.51-.5Z"/>
        <path class="cls-2" d="M50.38,24.65h.94v3.67h.02l1.84-1.96h1.11l-1.89,1.98,1.96,2.61h-1.1l-1.56-2.05-.39.39v1.66h-.94v-6.31Z"/>
        <path class="cls-2" d="M55.42,24.65h.94v6.31h-.94v-6.31Z"/>
        <path class="cls-2" d="M61.91,28.64h0c0,1.44-.83,2.4-2.12,2.4s-2.08-.93-2.08-2.31v-.32h3.26c-.02-.87-.49-1.37-1.24-1.37-.56,0-.94.29-1.05.63v.03h-.91v-.04c.16-.73.87-1.39,1.98-1.39,1.35,0,2.17.92,2.17,2.37ZM60.95,29.08h-2.31c.08.8.53,1.19,1.14,1.19s1.08-.42,1.17-1.19Z"/>
      </g>
      <g>
        <path class="cls-2" d="M105.94,14.43h2.79v.84h-2.79v-.84Z"/>
        <path class="cls-2" d="M110.67,15.11h0c0-1.46.75-2.37,1.9-2.37.65,0,1.17.33,1.44.86h.02v-2.47h.94v6.25h-.94v-.77h-.02c-.27.53-.78.86-1.43.86-1.16,0-1.91-.92-1.91-2.37ZM114.02,15.11h0c0-.95-.5-1.56-1.2-1.56-.74,0-1.2.6-1.2,1.56h0c0,.98.46,1.57,1.2,1.57s1.2-.62,1.2-1.56Z"/>
        <path class="cls-2" d="M115.83,16.09h0c0-.8.62-1.29,1.69-1.35l1.24-.07v-.34c0-.5-.33-.81-.91-.81-.54,0-.88.26-.95.62v.04h-.89v-.05c.07-.78.75-1.39,1.87-1.39s1.82.59,1.82,1.5v3.14h-.94v-.72h-.02c-.26.49-.79.8-1.4.8-.91,0-1.52-.56-1.52-1.38ZM117.61,16.72c.66,0,1.16-.45,1.16-1.04v-.36l-1.11.07c-.56.03-.88.28-.88.67h0c0,.41.33.66.83.66Z"/>
        <path class="cls-2" d="M120.7,12.83h.94v.69h.02c.24-.46.71-.78,1.39-.78,1,0,1.58.65,1.58,1.69v2.95h-.94v-2.77c0-.68-.32-1.07-.97-1.07s-1.08.48-1.08,1.19v2.66h-.94v-4.56Z"/>
      </g>
    </g>
  </g>
</svg>