<?xml version="1.0" encoding="UTF-8"?>
<svg id="Layer_2" data-name="Layer 2" xmlns="http://www.w3.org/2000/svg" xmlns:xlink="http://www.w3.org/1999/xlink" viewBox="0 0 135 40">
  <defs>
    <style>
      .cls-1 {
        opacity: .12;
      }

      .cls-1, .cls-2, .cls-3 {
        isolation: isolate;
      }

      .cls-2 {
        opacity: .2;
      }

      .cls-4 {
        fill: url(#linear-gradient-4);
      }

      .cls-5 {
        fill: url(#linear-gradient-3);
      }

      .cls-6 {
        fill: url(#linear-gradient-2);
      }

      .cls-7 {
        fill: url(#linear-gradient);
      }

      .cls-8 {
        fill: #a6a6a6;
      }

      .cls-9, .cls-3 {
        fill: #fff;
      }

      .cls-3 {
        opacity: .25;
      }
    </style>
    <linearGradient id="linear-gradient" x1="-982.49" y1="518.69" x2="-985.32" y2="521.52" gradientTransform="translate(5843.36 -3065.02) scale(5.93)" gradientUnits="userSpaceOnUse">
      <stop offset="0" stop-color="#00a0ff"/>
      <stop offset="0" stop-color="#00a1ff"/>
      <stop offset=".26" stop-color="#00beff"/>
      <stop offset=".51" stop-color="#00d2ff"/>
      <stop offset=".76" stop-color="#00dfff"/>
      <stop offset="1" stop-color="#00e3ff"/>
    </linearGradient>
    <linearGradient id="linear-gradient-2" x1="-980.45" y1="520.61" x2="-984.54" y2="520.61" gradientTransform="translate(5843.36 -3065.02) scale(5.93)" gradientUnits="userSpaceOnUse">
      <stop offset="0" stop-color="#ffe000"/>
      <stop offset=".41" stop-color="#ffbd00"/>
      <stop offset=".78" stop-color="orange"/>
      <stop offset="1" stop-color="#ff9c00"/>
    </linearGradient>
    <linearGradient id="linear-gradient-3" x1="-981.98" y1="520.98" x2="-985.82" y2="524.82" gradientTransform="translate(5843.36 -3065.02) scale(5.93)" gradientUnits="userSpaceOnUse">
      <stop offset="0" stop-color="#ff3a44"/>
      <stop offset="1" stop-color="#c31162"/>
    </linearGradient>
    <linearGradient id="linear-gradient-4" x1="-984.94" y1="517.26" x2="-983.22" y2="518.97" gradientTransform="translate(5843.36 -3065.02) scale(5.93)" gradientUnits="userSpaceOnUse">
      <stop offset="0" stop-color="#32a071"/>
      <stop offset=".07" stop-color="#2da771"/>
      <stop offset=".48" stop-color="#15cf74"/>
      <stop offset=".8" stop-color="#06e775"/>
      <stop offset="1" stop-color="#00f076"/>
    </linearGradient>
  </defs>
  <g id="US_UK_Download_on_the" data-name="US UK Download on the">
    <g>
      <path d="M130,40H5c-2.8,0-5-2.2-5-5V5C0,2.2,2.2,0,5,0h125c2.8,0,5,2.2,5,5v30c0,2.8-2.2,5-5,5Z"/>
      <path class="cls-8" d="M130,.8c2.3,0,4.2,1.9,4.2,4.2v30c0,2.3-1.9,4.2-4.2,4.2H5c-2.3,0-4.2-1.9-4.2-4.2V5C.8,2.7,2.7.8,5,.8h125M130,0H5C2.2,0,0,2.3,0,5v30c0,2.8,2.2,5,5,5h125c2.8,0,5-2.2,5-5V5c0-2.7-2.2-5-5-5Z"/>
      <path class="cls-9" d="M60.49,12.94c-1.91,0-3.43,1.43-3.43,3.43s1.51,3.43,3.43,3.43,3.43-1.43,3.43-3.43-1.51-3.43-3.43-3.43ZM60.49,18.36c-1.04,0-1.91-.88-1.91-2.07s.88-2.07,1.91-2.07,1.91.8,1.91,2.07c0,1.2-.88,2.07-1.91,2.07ZM53.08,12.94c-1.91,0-3.43,1.43-3.43,3.43s1.51,3.43,3.43,3.43,3.43-1.43,3.43-3.43-1.51-3.43-3.43-3.43ZM53.08,18.36c-1.04,0-1.91-.88-1.91-2.07s.88-2.07,1.91-2.07,1.91.8,1.91,2.07c0,1.2-.88,2.07-1.91,2.07ZM44.24,13.98v1.43h3.43c-.08.8-.4,1.43-.8,1.83-.48.48-1.27,1.04-2.63,1.04-2.15,0-3.74-1.67-3.74-3.82s1.67-3.82,3.74-3.82c1.12,0,1.99.48,2.63,1.04l1.04-1.04c-.88-.8-1.99-1.43-3.59-1.43-2.87,0-5.34,2.39-5.34,5.26s2.47,5.26,5.34,5.26c1.59,0,2.71-.48,3.67-1.51.96-.96,1.27-2.31,1.27-3.35,0-.32,0-.64-.08-.88h-4.94ZM80.41,15.1c-.32-.8-1.12-2.15-2.87-2.15s-3.19,1.35-3.19,3.43c0,1.91,1.43,3.43,3.35,3.43,1.51,0,2.47-.96,2.79-1.51l-1.12-.8c-.4.56-.88.96-1.67.96s-1.27-.32-1.67-1.04l4.54-1.91-.16-.4h0ZM75.79,16.21c0-1.27,1.04-1.99,1.75-1.99.56,0,1.12.32,1.27.72l-3.03,1.27h0ZM72.04,19.48h1.51v-9.96h-1.51v9.96ZM69.65,13.66c-.4-.4-1.04-.8-1.83-.8-1.67,0-3.27,1.51-3.27,3.43s1.51,3.35,3.27,3.35c.8,0,1.43-.4,1.75-.8h.08v.48c0,1.27-.72,1.99-1.83,1.99-.88,0-1.51-.64-1.67-1.2l-1.27.56c.4.88,1.35,1.99,3.03,1.99s3.19-1.04,3.19-3.51v-6.06h-1.43v.56h0ZM67.9,18.36c-1.04,0-1.91-.88-1.91-2.07s.88-2.07,1.91-2.07,1.83.88,1.83,2.07-.8,2.07-1.83,2.07ZM87.34,9.52h-3.59v9.96h1.51v-3.74h2.07c1.67,0,3.27-1.2,3.27-3.11s-1.59-3.11-3.27-3.11ZM87.42,14.3h-2.15v-3.43h2.15c1.12,0,1.75.96,1.75,1.67-.08.88-.72,1.75-1.75,1.75h0ZM96.58,12.86c-1.12,0-2.23.48-2.63,1.51l1.35.56c.32-.56.8-.72,1.35-.72.8,0,1.51.48,1.59,1.27v.08c-.24-.16-.88-.4-1.51-.4-1.43,0-2.87.8-2.87,2.23,0,1.35,1.2,2.23,2.47,2.23,1.04,0,1.51-.48,1.91-.96h.08v.8h1.43v-3.82c-.16-1.75-1.51-2.79-3.19-2.79h0ZM96.42,18.36c-.48,0-1.2-.24-1.2-.88,0-.8.88-1.04,1.59-1.04.64,0,.96.16,1.35.32-.16.96-.96,1.59-1.75,1.59ZM104.79,13.1l-1.67,4.3h-.08l-1.75-4.3h-1.59l2.63,6.06-1.51,3.35h1.51l4.06-9.4h-1.59ZM91.4,19.48h1.51v-9.96h-1.51v9.96Z"/>
      <g>
        <path class="cls-7" d="M9.83,7.5c-.3.3-.4.8-.4,1.4v22.1c0,.6.2,1.1.5,1.4l.1.1,12.4-12.4v-.2L9.83,7.5Z"/>
        <path class="cls-6" d="M26.43,24.3l-4.1-4.1v-.3l4.1-4.1.1.1,4.9,2.8c1.4.8,1.4,2.1,0,2.9l-5,2.7Z"/>
        <path class="cls-5" d="M26.53,24.2l-4.2-4.2-12.5,12.5c.5.5,1.2.5,2.1.1l14.6-8.4"/>
        <path class="cls-4" d="M26.53,15.8L11.93,7.5c-.9-.5-1.6-.4-2.1.1l12.5,12.4,4.2-4.2h0Z"/>
        <path class="cls-2" d="M26.43,24.1l-14.5,8.2c-.8.5-1.5.4-2,0l-.1.1.1.1c.5.4,1.2.5,2,0l14.5-8.4Z"/>
        <path class="cls-1" d="M9.83,32.3c-.3-.3-.4-.8-.4-1.4v.1c0,.6.2,1.1.5,1.4v-.1h-.1ZM31.43,21.3l-5,2.8.1.1,4.9-2.8c.7-.4,1-.9,1-1.4,0,.5-.4.9-1,1.3Z"/>
        <path class="cls-3" d="M11.93,7.6l19.5,11.1c.6.4,1,.8,1,1.3,0-.5-.3-1-1-1.4L11.93,7.5c-1.4-.8-2.5-.2-2.5,1.4v.1c0-1.5,1.1-2.2,2.5-1.4Z"/>
      </g>
      <g>
        <path class="cls-9" d="M108.06,17.17v-.8h2.78v.8h-2.78Z"/>
        <path class="cls-9" d="M114.83,19c-.4,0-.76-.1-1.1-.3-.33-.2-.59-.47-.79-.8s-.29-.71-.29-1.13.1-.79.29-1.13c.19-.34.45-.6.78-.8.33-.2.69-.3,1.1-.3s.74.1,1.05.3.56.46.75.8c.19.34.28.71.28,1.13s-.09.79-.28,1.13-.43.61-.75.8-.66.3-1.05.3ZM114.95,18.15c.26,0,.5-.06.7-.18s.38-.29.5-.5c.12-.21.19-.44.19-.7s-.06-.49-.19-.7c-.12-.21-.29-.37-.5-.49s-.44-.18-.7-.18-.5.06-.7.18-.37.29-.5.49-.18.44-.18.7.06.49.18.7c.12.21.29.37.5.5s.44.18.7.18ZM116.37,18.86v-6.26h.89v6.26h-.89Z"/>
        <path class="cls-9" d="M120.13,14.55c.42,0,.79.1,1.13.3s.6.47.8.8c.2.34.3.71.3,1.12s-.09.8-.27,1.14c-.18.34-.42.61-.74.8s-.68.29-1.08.29c-.43,0-.82-.1-1.14-.3s-.58-.46-.76-.8c-.18-.34-.27-.72-.28-1.15,0-.04,0-.08,0-.13s.01-.09.02-.13h.87c-.01.05-.02.11-.02.18,0,.07,0,.13,0,.21,0,.24.04.45.13.65s.23.35.41.47.42.17.7.17.51-.06.7-.17c.19-.12.33-.28.43-.48.1-.21.14-.44.14-.71s-.06-.5-.19-.72c-.12-.22-.29-.39-.5-.53-.21-.13-.45-.2-.72-.2-.15,0-.3.02-.46.07s-.31.11-.44.2c-.14.08-.24.17-.33.28l-.56-.56c.13-.15.29-.29.5-.41.2-.12.42-.22.66-.29s.47-.1.69-.1ZM121.91,16.5v.67h-3.56v-.67h3.56Z"/>
        <path class="cls-9" d="M123.24,18.86v-4.17h.93v.97l-.15-.17c.16-.28.38-.51.65-.69.27-.17.57-.26.9-.26.36,0,.68.09.97.27.29.18.51.43.68.73s.25.65.25,1.03v2.28h-.93v-2.28c0-.22-.05-.42-.16-.6-.1-.18-.25-.32-.43-.43-.18-.11-.38-.16-.6-.16s-.42.06-.6.17-.32.27-.43.46c-.11.19-.16.41-.16.65v2.19h-.93Z"/>
      </g>
      <g>
        <path class="cls-9" d="M41.39,30.76v-2.45l-2.41-3.63h1.01l2.02,3.01h-.35l2.02-3.01h1.02l-2.41,3.63v2.45h-.9Z"/>
        <path class="cls-9" d="M49.04,26.59v4.17h-.93v-.99l.15.17c-.16.3-.37.53-.64.7-.27.17-.57.26-.89.26-.35,0-.66-.09-.93-.26-.28-.18-.49-.42-.66-.72-.16-.3-.24-.64-.24-1.01v-2.32h.93v2.32c0,.21.05.41.15.58.1.17.24.31.41.41.17.1.37.15.58.15s.41-.05.58-.16.31-.26.41-.44c.1-.19.15-.4.15-.62v-2.23h.93ZM46.14,25.84c-.15,0-.28-.05-.39-.16-.11-.11-.16-.24-.16-.39s.05-.29.16-.4c.11-.11.24-.16.39-.16s.29.05.4.16c.11.11.16.24.16.4s-.05.28-.16.39c-.11.11-.24.16-.4.16ZM47.78,25.84c-.15,0-.28-.05-.39-.16-.11-.11-.16-.24-.16-.39s.05-.29.16-.4c.11-.11.24-.16.39-.16s.28.05.39.16c.11.11.16.24.16.4s-.05.28-.16.39c-.11.11-.24.16-.39.16Z"/>
        <path class="cls-9" d="M50.24,30.76v-6.26h.93v6.26h-.93ZM50.93,28.52l2.03-1.93h1.1l-1.98,1.93h-1.14ZM53.21,30.76l-2-2.51h1.06l2.02,2.51h-1.08Z"/>
        <path class="cls-9" d="M54.88,30.76v-6.26h.9v6.26h-.9Z"/>
        <path class="cls-9" d="M58.63,26.45c.42,0,.79.1,1.13.3s.6.47.8.8c.2.34.3.71.3,1.12s-.09.8-.27,1.14c-.18.34-.42.61-.74.8s-.68.29-1.08.29c-.43,0-.82-.1-1.14-.3s-.58-.46-.76-.8c-.18-.34-.27-.72-.28-1.15,0-.04,0-.08,0-.13s.01-.09.02-.13h.87c-.01.05-.02.11-.02.18,0,.07,0,.13,0,.21,0,.24.04.45.13.65s.23.35.41.47.42.17.7.17.51-.06.7-.17c.19-.12.33-.28.43-.48.1-.21.14-.44.14-.71s-.06-.5-.19-.72c-.12-.22-.29-.39-.5-.53-.21-.13-.45-.2-.72-.2-.15,0-.3.02-.46.07s-.31.11-.44.2c-.14.08-.24.17-.33.28l-.56-.56c.13-.15.29-.29.5-.41.2-.12.42-.22.66-.29s.47-.1.69-.1ZM60.41,28.4v.67h-3.56v-.67h3.56Z"/>
      </g>
    </g>
  </g>
</svg>