<?xml version="1.0" encoding="UTF-8"?>
<svg id="Layer_2" data-name="Layer 2" xmlns="http://www.w3.org/2000/svg" viewBox="0 0 707.48 693.96">
  <defs>
    <style>
      .cls-1 {
        fill: #fff;
      }
    </style>
  </defs>
  <g id="Layer_1-2" data-name="Layer 1">
    <g>
      <path class="cls-1" d="M342.32,34.35C150.44,34.35,0,179.02,0,364.18s149.47,329.78,342.32,329.78,344.28-144.62,344.28-329.78S535.22,34.35,342.32,34.35ZM491.97,494.88l34.85,52.77-52.82-34.85c-79.27-52.33-182.14-52.33-261.41,0l-52.77,34.85,34.85-52.77c52.33-79.27,52.33-182.14,0-261.41l-34.85-52.82,52.77,34.85c79.27,52.37,182.14,52.37,261.41,0l52.82-34.85-34.85,52.82c-52.37,79.27-52.37,182.14,0,261.41Z"/>
      <path class="cls-1" d="M639.98,0l3.34,16.3c4.93,24.1,23.76,42.93,47.86,47.86l16.3,3.34-16.3,3.34c-24.1,4.93-42.93,23.76-47.86,47.86l-3.34,16.3-3.34-16.3c-4.93-24.1-23.76-42.93-47.86-47.86l-16.3-3.34,16.3-3.34c24.1-4.93,42.93-23.76,47.86-47.86l3.34-16.3Z"/>
    </g>
  </g>
</svg>