<svg xmlns="http://www.w3.org/2000/svg" viewBox="0 0 29 29" role="img"><title>Your relink QR code</title><path fill="transparent" d="M0,0 h29v29H0z" shape-rendering="crispEdges"/><path fill="#000000" d="M0 0h7v1H0zM8 0h1v1H8zM11 0h1v1H11zM14 0h1v1H14zM17 0h1v1H17zM19 0h1v1H19zM22,0 h7v1H22zM0 1h1v1H0zM6 1h1v1H6zM8 1h1v1H8zM10 1h1v1H10zM12 1h1v1H12zM17 1h3v1H17zM22 1h1v1H22zM28,1 h1v1H28zM0 2h1v1H0zM2 2h3v1H2zM6 2h1v1H6zM8 2h1v1H8zM10 2h2v1H10zM13 2h4v1H13zM18 2h3v1H18zM22 2h1v1H22zM24 2h3v1H24zM28,2 h1v1H28zM0 3h1v1H0zM2 3h3v1H2zM6 3h1v1H6zM8 3h1v1H8zM10 3h5v1H10zM18 3h2v1H18zM22 3h1v1H22zM24 3h3v1H24zM28,3 h1v1H28zM0 4h1v1H0zM2 4h3v1H2zM6 4h1v1H6zM8 4h1v1H8zM11 4h3v1H11zM15 4h1v1H15zM18 4h2v1H18zM22 4h1v1H22zM24 4h3v1H24zM28,4 h1v1H28zM0 5h1v1H0zM6 5h1v1H6zM9 5h1v1H9zM13 5h3v1H13zM17 5h4v1H17zM22 5h1v1H22zM28,5 h1v1H28zM0 6h7v1H0zM8 6h1v1H8zM10 6h1v1H10zM12 6h1v1H12zM14 6h1v1H14zM16 6h1v1H16zM18 6h1v1H18zM20 6h1v1H20zM22,6 h7v1H22zM8 7h2v1H8zM11 7h2v1H11zM14 7h1v1H14zM17 7h4v1H17zM1 8h2v1H1zM4 8h1v1H4zM6 8h2v1H6zM10 8h1v1H10zM16 8h2v1H16zM22 8h1v1H22zM24,8 h5v1H24zM0 9h1v1H0zM7 9h5v1H7zM13 9h2v1H13zM20 9h1v1H20zM22 9h1v1H22zM26 9h1v1H26zM28,9 h1v1H28zM1 10h1v1H1zM4 10h1v1H4zM6 10h1v1H6zM8 10h2v1H8zM16 10h1v1H16zM18 10h1v1H18zM20 10h1v1H20zM23 10h1v1H23zM25 10h1v1H25zM27,10 h2v1H27zM2 11h4v1H2zM7 11h1v1H7zM9 11h1v1H9zM13 11h1v1H13zM16 11h7v1H16zM24 11h1v1H24zM27 11h1v1H27zM2 12h1v1H2zM4 12h1v1H4zM6 12h2v1H6zM9 12h1v1H9zM12 12h6v1H12zM20 12h1v1H20zM22 12h2v1H22zM25 12h1v1H25zM0 13h1v1H0zM2 13h2v1H2zM5 13h1v1H5zM7 13h2v1H7zM10 13h3v1H10zM15 13h3v1H15zM20 13h4v1H20zM27,13 h2v1H27zM2 14h1v1H2zM4 14h4v1H4zM9 14h5v1H9zM20 14h1v1H20zM22 14h2v1H22zM26 14h1v1H26zM28,14 h1v1H28zM0 15h4v1H0zM7 15h4v1H7zM13 15h1v1H13zM16 15h3v1H16zM23 15h1v1H23zM28,15 h1v1H28zM0 16h3v1H0zM6 16h1v1H6zM10 16h1v1H10zM12 16h5v1H12zM18 16h1v1H18zM21 16h3v1H21zM25 16h1v1H25zM28,16 h1v1H28zM1 17h2v1H1zM5 17h1v1H5zM7 17h2v1H7zM11 17h1v1H11zM15 17h2v1H15zM20 17h1v1H20zM22 17h2v1H22zM25,17 h4v1H25zM0 18h1v1H0zM2 18h5v1H2zM10 18h1v1H10zM12 18h2v1H12zM15 18h3v1H15zM21 18h1v1H21zM23,18 h6v1H23zM1 19h1v1H1zM4 19h1v1H4zM7 19h1v1H7zM12 19h1v1H12zM14 19h1v1H14zM16 19h2v1H16zM19 19h2v1H19zM22 19h1v1H22zM24 19h1v1H24zM0 20h1v1H0zM3 20h2v1H3zM6 20h3v1H6zM10 20h2v1H10zM13 20h1v1H13zM15 20h3v1H15zM19 20h6v1H19zM27 20h1v1H27zM8 21h1v1H8zM11 21h1v1H11zM16 21h1v1H16zM20 21h1v1H20zM24 21h1v1H24zM28,21 h1v1H28zM0 22h7v1H0zM8 22h5v1H8zM16 22h2v1H16zM19 22h2v1H19zM22 22h1v1H22zM24 22h1v1H24zM26,22 h3v1H26zM0 23h1v1H0zM6 23h1v1H6zM11 23h1v1H11zM13 23h1v1H13zM16 23h1v1H16zM20 23h1v1H20zM24 23h1v1H24zM0 24h1v1H0zM2 24h3v1H2zM6 24h1v1H6zM8 24h1v1H8zM12 24h1v1H12zM15 24h1v1H15zM20 24h6v1H20zM0 25h1v1H0zM2 25h3v1H2zM6 25h1v1H6zM11 25h1v1H11zM14 25h2v1H14zM20 25h2v1H20zM24 25h1v1H24zM26 25h1v1H26zM0 26h1v1H0zM2 26h3v1H2zM6 26h1v1H6zM8 26h3v1H8zM17 26h3v1H17zM23 26h3v1H23zM28,26 h1v1H28zM0 27h1v1H0zM6 27h1v1H6zM8 27h1v1H8zM11 27h1v1H11zM13 27h1v1H13zM15 27h1v1H15zM17 27h2v1H17zM20 27h2v1H20zM23 27h1v1H23zM27 27h1v1H27zM0 28h7v1H0zM11 28h1v1H11zM16 28h3v1H16zM20 28h1v1H20zM24 28h1v1H24zM27,28 h2v1H27z" shape-rendering="crispEdges"/><image height="7.9296875" width="7.9296875" x="10.53515625" y="10.53515625" preserveAspectRatio="none" opacity="1"/></svg>