<?xml version="1.0" encoding="UTF-8"?>
<svg id="Layer_2" data-name="Layer 2" xmlns="http://www.w3.org/2000/svg" viewBox="0 0 816.75 283.39">
  <defs>
    <style>
      .cls-1 {
        fill: #009bff;
      }
    </style>
  </defs>
  <g id="Layer_1-2" data-name="Layer 1">
    <g>
      <path class="cls-1" d="M210.68,67.59l-68.13,112.63v68.91c0,19.69-14.57,34.26-33.87,34.26s-33.87-14.57-33.87-34.26v-68.91L6.69,67.59C1.97,60.1,0,53.41,0,45.93,0,27.81,14.18,14.03,32.69,14.03c14.18,0,24.42,6.3,31.5,19.69l44.5,80.34,44.5-80.34c7.09-13,17.33-19.69,31.5-19.69,18.51,0,32.69,13.78,32.69,31.9,0,7.48-1.97,14.18-6.7,21.66Z"/>
      <path class="cls-1" d="M816.75,49.08v200.05c0,19.69-14.57,34.26-33.87,34.26s-33.87-14.57-33.87-34.26v-90.97l-33.87,53.95c-9.45,14.96-18.12,20.87-30.72,20.87s-21.27-5.91-30.72-20.87l-33.87-53.95v90.97c0,19.69-14.57,34.26-33.87,34.26s-33.87-14.57-33.87-34.26V49.08c0-20.08,14.18-35.05,33.87-35.05,13.78,0,23.23,6.69,34.26,24.81l64.19,103.18,64.19-103.18c11.03-18.12,20.48-24.81,34.26-24.81,19.69,0,33.87,14.96,33.87,35.05Z"/>
      <g>
        <path class="cls-1" d="M373.32,14.03c-78.35,0-139.79,59.07-139.79,134.69s61.04,134.67,139.79,134.67,140.59-59.06,140.59-134.67S452.09,14.03,373.32,14.03ZM434.42,202.09l14.23,21.55-21.57-14.23c-32.37-21.37-74.38-21.37-106.75,0l-21.55,14.23,14.23-21.55c21.37-32.37,21.37-74.38,0-106.75l-14.23-21.57,21.55,14.23c32.37,21.39,74.38,21.39,106.75,0l21.57-14.23-14.23,21.57c-21.39,32.37-21.39,74.38,0,106.75Z"/>
        <path class="cls-1" d="M494.87,0l1.36,6.66c2.01,9.84,9.7,17.53,19.55,19.55l6.66,1.36-6.66,1.36c-9.84,2.01-17.53,9.7-19.55,19.55l-1.36,6.66-1.36-6.66c-2.01-9.84-9.7-17.53-19.55-19.55l-6.66-1.36,6.66-1.36c9.84-2.01,17.53-9.7,19.55-19.55l1.36-6.66Z"/>
      </g>
    </g>
  </g>
</svg>